<svg width="24" height="26" viewBox="0 0 24 26" fill="none" xmlns="http://www.w3.org/2000/svg">
<path id="Combined Shape" fill-rule="evenodd" clip-rule="evenodd" d="M0.527978 0.567338C-0.175993 1.32378 -0.175993 2.55023 0.527978 3.30668L9.45057 12.8944L0.527978 22.482C-0.175993 23.2386 -0.175993 24.4649 0.527978 25.2215C1.23195 25.9779 2.37333 25.9779 3.07731 25.2215L12 15.6338L20.9226 25.2215C21.6267 25.9779 22.7679 25.9779 23.472 25.2215C24.176 24.4649 24.176 23.2386 23.472 22.482L14.5494 12.8944L23.472 3.30667C24.176 2.55023 24.176 1.32378 23.472 0.567334C22.7679 -0.189106 21.6267 -0.189106 20.9226 0.567334L12 10.155L3.07731 0.567338C2.37333 -0.189122 1.23195 -0.189103 0.527978 0.567338Z" fill="#899A96"/>
</svg>
